<svg width="136" height="40" viewBox="0 0 136 40" fill="none" xmlns="http://www.w3.org/2000/svg">
<g clip-path="url(#clip0_0_130)">
<rect width="136" height="40" fill="white"/>
<g filter="url(#filter0_d_0_130)">
<rect width="136" height="40" rx="6" fill="white"/>
</g>
<path d="M69.632 19.224C70.2827 19.384 70.784 19.704 71.136 20.184C71.4987 20.6533 71.68 21.24 71.68 21.944C71.68 22.936 71.3547 23.6933 70.704 24.216C70.064 24.7387 69.152 25 67.968 25H63.456V13.72H67.808C68.96 13.72 69.8507 13.976 70.48 14.488C71.1093 15 71.424 15.7307 71.424 16.68C71.424 17.288 71.264 17.8107 70.944 18.248C70.6347 18.6853 70.1973 19.0107 69.632 19.224ZM64.432 18.84H67.664C68.5707 18.84 69.2587 18.6533 69.728 18.28C70.1973 17.9067 70.432 17.368 70.432 16.664C70.432 15.2667 69.5093 14.568 67.664 14.568H64.432V18.84ZM67.904 24.152C68.8533 24.152 69.552 23.976 70 23.624C70.4587 23.2613 70.688 22.712 70.688 21.976C70.688 20.4613 69.76 19.704 67.904 19.704H64.432V24.152H67.904ZM77.0708 17.048C78.0094 17.048 78.7081 17.2933 79.1668 17.784C79.6361 18.2747 79.8708 19.016 79.8708 20.008V25H78.9108V23.608C78.6868 24.088 78.3614 24.4613 77.9348 24.728C77.5081 24.984 77.0174 25.112 76.4628 25.112C75.9614 25.112 75.5028 25.0107 75.0868 24.808C74.6708 24.6053 74.3401 24.3227 74.0948 23.96C73.8601 23.5973 73.7428 23.1973 73.7428 22.76C73.7428 22.184 73.8921 21.736 74.1908 21.416C74.4894 21.096 74.9854 20.8667 75.6788 20.728C76.3721 20.5893 77.3374 20.52 78.5748 20.52H78.9108V19.928C78.9108 19.224 78.7668 18.712 78.4788 18.392C78.1908 18.0613 77.7374 17.896 77.1188 17.896C76.6494 17.896 76.1961 17.9653 75.7588 18.104C75.3321 18.232 74.8894 18.4453 74.4308 18.744L74.0628 17.992C74.4574 17.704 74.9268 17.4747 75.4708 17.304C76.0148 17.1333 76.5481 17.048 77.0708 17.048ZM76.5428 24.264C77.2361 24.264 77.8014 24.0293 78.2388 23.56C78.6868 23.0907 78.9108 22.4933 78.9108 21.768V21.24H78.6068C77.5828 21.24 76.7988 21.2827 76.2548 21.368C75.7108 21.4533 75.3268 21.6027 75.1028 21.816C74.8788 22.0187 74.7668 22.3173 74.7668 22.712C74.7668 23.16 74.9374 23.5333 75.2788 23.832C75.6201 24.12 76.0414 24.264 76.5428 24.264ZM85.5726 25.112C84.8366 25.112 84.1913 24.9467 83.6366 24.616C83.0926 24.2853 82.6713 23.816 82.3726 23.208C82.074 22.6 81.9246 21.9013 81.9246 21.112C81.9246 20.312 82.074 19.6027 82.3726 18.984C82.682 18.3653 83.114 17.8907 83.6686 17.56C84.2233 17.2187 84.874 17.048 85.6206 17.048C86.1433 17.048 86.6446 17.1387 87.1246 17.32C87.6153 17.5013 88.01 17.752 88.3086 18.072L87.9406 18.84C87.546 18.5093 87.162 18.2693 86.7886 18.12C86.426 17.9707 86.0473 17.896 85.6526 17.896C84.8206 17.896 84.1593 18.184 83.6686 18.76C83.1886 19.3253 82.9486 20.1093 82.9486 21.112C82.9486 22.104 83.1886 22.8773 83.6686 23.432C84.1486 23.976 84.8046 24.248 85.6366 24.248C86.0313 24.248 86.41 24.1733 86.7726 24.024C87.146 23.8747 87.5353 23.64 87.9406 23.32L88.3086 24.072C87.9886 24.392 87.5833 24.648 87.0926 24.84C86.602 25.0213 86.0953 25.112 85.5726 25.112ZM96.5424 25H95.2304L90.9904 21.224V25H90.0144V13.72H90.9904V20.824L94.8464 17.24H96.1104L92.0784 20.968L96.5424 25Z" fill="#111517"/>
<path fill-rule="evenodd" clip-rule="evenodd" d="M38.4645 14.1074L39.643 15.286L35.7539 19.175L50.6031 19.175L50.6031 20.825L35.7539 20.825L39.643 24.714L38.4645 25.8926L32.5719 20L38.4645 14.1074Z" fill="#111517"/>
</g>
<defs>
<filter id="filter0_d_0_130" x="-7" y="-7" width="150" height="54" filterUnits="userSpaceOnUse" color-interpolation-filters="sRGB">
<feFlood flood-opacity="0" result="BackgroundImageFix"/>
<feColorMatrix in="SourceAlpha" type="matrix" values="0 0 0 0 0 0 0 0 0 0 0 0 0 0 0 0 0 0 127 0" result="hardAlpha"/>
<feOffset/>
<feGaussianBlur stdDeviation="3.5"/>
<feColorMatrix type="matrix" values="0 0 0 0 0 0 0 0 0 0 0 0 0 0 0 0 0 0 0.293139 0"/>
<feBlend mode="normal" in2="BackgroundImageFix" result="effect1_dropShadow_0_130"/>
<feBlend mode="normal" in="SourceGraphic" in2="effect1_dropShadow_0_130" result="shape"/>
</filter>
<clipPath id="clip0_0_130">
<rect width="136" height="40" fill="white"/>
</clipPath>
</defs>
</svg>
